<?xml version="1.0" ?><svg viewBox="0 0 256 256" xmlns="http://www.w3.org/2000/svg"><path d="m220.41 74.48c-8.06-10.14-28.14-12.09-33.6-12.7s-6.82-2.2-4.3-6.21 22.35-24.87 22.35-24.87c2.37-3.18-6.84-8.25-9.18-4.69 0 0-27.77 30.38-34.65 32.59-1.32.42-69.15 1.87-71.29.57-5.27-3.17-22.88-27.93-22.88-27.93-2.45-2.93-11.66 1.34-9.18 4.69 0 0 12.13 18.47 14.49 21.93s.85 5.41-4.36 6.08-25 1-34 14.78c-8.24 12.71-10.83 117 1 129.16 9.07 9.31 13.68 7.55 19.45 11.26 3.9 2.59 2 14.38 6.2 18.71s37.75 6.06 67.92 5.7 62.42-2.28 66.48-5.7 2.26-17.26 6-19.42c3.66-2.51 13.26-1.94 21-10.55 11.41-12.55 7.98-121.55-1.45-133.4z" fill="#191919"/><path d="m120.39 251.6c-13.29 0-26-.4-36.32-1.16-22.43-1.64-26.81-4.37-29.38-7-3.91-4-4.73-9.84-5.39-14.49-.16-1.13-.38-2.7-.61-3.72a28.72 28.72 0 0 0 -2.83-1.06c-4-1.36-9.53-3.21-16.8-10.68-7.09-7.28-10.54-30.83-10.27-70 .07-9.5.78-57.47 8.32-69.1 8.89-13.74 25.51-16.84 34.55-17.86-4.12-6.23-9.82-14.9-10.6-16.09-2.77-4-2.68-10.18 2.83-14.52s14.36-5.48 19.1.19q.2.24.38.49c7 9.79 15.9 21.29 19.61 24.92 10.17.54 56.67-.25 65.88-.77 4.67-2.93 19.14-17.31 30.61-29.83a11.23 11.23 0 0 1 9.88-4.08c4.68.37 10.62 3.39 12.92 8.46a9.94 9.94 0 0 1 -1 10.18 7.87 7.87 0 0 1 -.62.74c-6 6.28-12.65 13.49-17 18.36 9.43 1.38 25 4.87 33 14.93 8.41 10.57 10 57.21 10.29 71.26.57 27.85-.54 63-9.09 72.49-6.82 7.55-14.88 9.72-19.7 11l-1.7.47c-.22 1.15-.42 2.73-.57 3.9-.7 5.45-1.5 11.63-5.9 15.34-2.54 2.14-6.6 4.2-28 5.85-11.91.92-27.38 1.53-43.55 1.73-2.67.03-5.37.05-8.04.05zm-54.27-19.72c6.24 2.11 30.66 4 62.15 3.67 33.87-.41 54.88-2.45 61-4 .32-1.39.6-3.54.79-5 .71-5.54 1.52-11.81 6.59-14.92a24.85 24.85 0 0 1 7.39-2.85c4.06-1.09 8.27-2.22 11.91-6.22 2.37-3.45 5.82-23.12 5-61.54-.73-35.7-4.52-57.83-6.88-61.67-2.68-3.3-9.67-7.62-27.7-9.6l-.47-.05c-2.45-.27-8.94-1-11.64-6.6a9.94 9.94 0 0 1 -1-3.47c-4 3.39-7.47 5.78-9.85 6.55-1 .32-2.5.8-37.67 1.31-36.79.56-37.74-.04-40.18-1.49a25.53 25.53 0 0 1 -4.43-3.8 10.16 10.16 0 0 1 -.77 2.64c-1.76 3.92-5.64 6.3-11.54 7.05-.63.08-1.45.16-2.42.25-6.48.6-20 1.85-25.87 10.94-2.22 3.85-5.47 26.84-5.74 59.88-.3 37.21 3.38 56.14 5.8 59.41 4.54 4.63 7.12 5.51 10.41 6.63a31.67 31.67 0 0 1 7.59 3.43l.1.06c4.93 3.28 5.75 9.08 6.48 14.21a38.84 38.84 0 0 0  .95 5.18z" fill="#191919"/><path d="m220.41 74.48c-8.06-10.14-28.14-12.09-33.6-12.7s-6.82-2.2-4.3-6.21 22.35-24.87 22.35-24.87c2.37-3.18-6.84-8.25-9.18-4.69 0 0-27.77 30.38-34.65 32.59-1.32.42-69.15 1.87-71.29.57-5.27-3.17-22.88-27.93-22.88-27.93-2.45-2.93-11.66 1.34-9.18 4.69 0 0 12.13 18.47 14.49 21.93s.85 5.41-4.36 6.08-25 1-34 14.78c-8.24 12.71-10.83 117 1 129.16 9.07 9.31 13.68 7.55 19.45 11.26 3.9 2.59 2 14.38 6.2 18.71s37.75 6.06 67.92 5.7 62.42-2.28 66.48-5.7 2.26-17.26 6-19.42c3.66-2.51 13.26-1.94 21-10.55 11.41-12.55 7.98-121.55-1.45-133.4z" fill="#e83a2a"/><path d="m225.44 216.77s.12-.06 0 0-.01.01 0 0z" fill="#e83a2a"/><path d="m200.18 94.85c-10.45-13.09-134.62-13.12-145.09 0-7.25 9.09-9.79 85.68-1.2 95.54 11.54 13.26 133.28 10.74 147.5 0 10.42-7.88 6.05-86.45-1.21-95.54z" fill="#fff"/><path d="m121.39 203.42c-22 0-62.58-1.27-70.52-10.4-6.54-7.51-6.6-38-6.32-50.77.15-7 1.22-42.13 7.41-49.89 8.39-10.52 60.04-11.36 75.63-11.36 15.64 0 67.32.82 75.71 11.33 6.88 8.62 10.19 58.48 7.08 83.28-1.61 12.85-4.53 16.4-6.59 18-9 6.79-47.16 9.53-77.12 9.81zm6.2-114.42c-43.27 0-66.59 4.89-69.37 8.34-1.94 2.44-5.09 18.45-5.67 45.07-.55 25.59 1.83 42.45 4.35 45.35 3.47 4 29.07 8 69.69 7.63 39-.37 67.43-4.45 72.38-8.19 0 0 2.19-1.81 3.54-13.14 3.2-26.72-1.36-71.57-5.46-76.71-2.75-3.46-26.13-8.35-69.46-8.35z" fill="#191919"/><path d="m56.81 13.09c-.38-1.33-4.81-7.81-6.23-8.82s-6.48 3.38-6.47 4.49 5 7.93 6.23 8.82 6.84-3.16 6.47-4.49z" fill="#191919"/><path d="m40.43 41.26c-1.33.39-7.78 4.86-8.77 6.29s3.41 6.45 4.53 6.45 7.89-5 8.77-6.29-3.21-6.84-4.53-6.45z" fill="#191919"/><path d="m42.69 27.33c2.53 1.37 1.54 7.23-1.59 7.42s-19.2-2.53-21.37-3.69-1.84-7 1.59-7.42 18.59 2.19 21.37 3.69z" fill="#191919"/><path d="m99.6 15.41c2.33 0 4.72 5.42 2.81 7s-13.65 6.84-15.65 6.87-4.79-5.07-2.81-7 13.05-6.86 15.65-6.87z" fill="#191919"/><path d="m183.85 14.74c-.95-1-4.24-8.14-4.37-9.87s6.22-3.82 7.17-3.25 4.24 8.38 4.35 9.87-6.21 4.25-7.15 3.25z" fill="#191919"/><path d="m218.27 41.26c1.33.39 7.78 4.86 8.77 6.29s-3.42 6.45-4.53 6.45-7.89-5-8.77-6.29 3.2-6.84 4.53-6.45z" fill="#191919"/><path d="m220.78 26.66c-2.84 1.43-1.86 7.28 1.62 7.42s21.44-2.93 23.88-4.14 2.2-7-1.62-7.42-20.76 2.57-23.88 4.14z" fill="#191919"/><path d="m158.67 18.78c-2.16.88-2.28 6.82.12 7.59s15.23 1.07 17.09.33 2.47-6.52-.12-7.59-14.76-1.3-17.09-.33z" fill="#191919"/></svg>