1<?xml version="1.0" encoding="utf-8"?>
<!-- Generator: Adobe Illustrator 16.0.0, SVG Export Plug-In . SVG Version: 6.00 Build 0)  -->
<!DOCTYPE svg PUBLIC "-//W3C//DTD SVG 1.1//EN" "http://www.w3.org/Graphics/SVG/1.1/DTD/svg11.dtd">
<svg version="1.1" id="Layer_1" xmlns="http://www.w3.org/2000/svg" xmlns:xlink="http://www.w3.org/1999/xlink" x="0px" y="0px"
	 width="512px" height="512px" viewBox="0 0 512 512" enable-background="new 0 0 512 512" xml:space="preserve">
<g>
	<polygon fill-rule="evenodd" clip-rule="evenodd" fill="#B06328" points="430.792,168.729 430.556,247.503 480.625,197.548 	"/>
	<polygon fill-rule="evenodd" clip-rule="evenodd" fill="#B06328" points="31.375,197.548 81.209,168.729 81.33,247.857 	"/>
	<polygon fill-rule="evenodd" clip-rule="evenodd" fill="#F8B84E" points="180.656,346.708 81.33,247.503 31.375,197.548 
		31.375,495.984 	"/>
	<polygon fill-rule="evenodd" clip-rule="evenodd" fill="#F8B84E" points="331.351,346.708 480.625,495.984 480.625,197.548 
		430.556,247.503 	"/>
	<polygon fill-rule="evenodd" clip-rule="evenodd" fill="#FAC75A" points="180.656,346.708 31.375,495.984 256,495.984 
		480.625,495.984 331.351,346.708 288.713,304.191 256,304.191 223.287,304.191 	"/>
	<path fill-rule="evenodd" clip-rule="evenodd" fill="#D5E3EF" d="M430.556,98.223h-74.523c-9.333,0.238-14.996-3.778-14.996-14.29
		V16.025H256H96.449c-9.334-0.236-15.005,3.78-15.005,14.291L81.33,247.503l99.326,99.205l42.631-42.517H256h32.713l42.638,42.517
		l99.205-99.205V98.223z"/>
	<path fill="#3E555F" d="M128.926,147.827c-1.887,0-3.424-1.537-3.424-3.426c0-1.888,1.537-3.423,3.424-3.423H256
		c1.889,0,3.427,1.536,3.427,3.423c0,1.89-1.538,3.426-3.427,3.426H128.926z M128.926,233.923c-1.887,0-3.424-1.536-3.424-3.427
		c0-1.888,1.537-3.424,3.424-3.424h252.023c1.889,0,3.427,1.536,3.427,3.424c0,1.891-1.538,3.427-3.427,3.427H128.926z
		 M128.926,170.501c-1.887,0-3.424-1.534-3.424-3.424c0-1.89,1.537-3.425,3.424-3.425h252.023c1.889,0,3.427,1.535,3.427,3.425
		c0,1.89-1.538,3.424-3.427,3.424H128.926z M128.926,190.46c-1.887,0-3.424-1.534-3.424-3.424s1.537-3.426,3.424-3.426h252.023
		c1.889,0,3.427,1.536,3.427,3.426s-1.538,3.424-3.427,3.424H128.926z M128.926,213.491c-1.887,0-3.424-1.537-3.424-3.544
		c0-1.89,1.537-3.423,3.424-3.423H256c1.889,0,3.427,1.534,3.427,3.423c0,2.007-1.538,3.544-3.427,3.544H128.926z"/>
	<path fill-rule="evenodd" clip-rule="evenodd" fill="#9AB5CE" d="M356.032,98.223h74.523l-89.52-82.198v67.909
		C341.036,94.445,346.699,98.461,356.032,98.223L356.032,98.223z"/>
	<path fill-rule="evenodd" clip-rule="evenodd" fill="#C9D5E3" d="M214.312,285.65l-35.788,33.891l-97.079-97.075l-0.114,25.037
		l99.326,99.205l42.631-42.517H256h32.713l42.638,42.517l99.205-99.205v-23.975V98.223h-74.523c0,0-17.6,0-14.996-27.281v27.281
		c0,0-1.303,19.132,16.771,19.132c17.951,0,52.674,0,52.674,0v126.132l-77.125,77.121l-34.839-34.958H214.312z"/>
	<path fill-rule="evenodd" clip-rule="evenodd" fill="#E5AF50" d="M465.513,452.762l-120.108-120.11l-14.054,14.057l149.274,149.276
		v-10.272V467.76V197.548c-14.291,14.17-15.112,27.871-15.112,27.871V452.762z"/>
	<polygon fill-rule="evenodd" clip-rule="evenodd" fill="#E5AF50" points="31.375,467.76 166.481,332.651 180.656,346.708 
		31.375,495.984 	"/>
	<path fill-rule="evenodd" clip-rule="evenodd" fill="#F8B84E" d="M223.287,304.191c0,0,1.774,14.878,20.312,15.232
		c18.658,0.473,37.203,0,37.203,0l163.686,163.689H235.217c0,0-25.632-2.01-29.645,12.871h275.053L288.713,304.191H223.287z"/>
	<path fill-rule="evenodd" clip-rule="evenodd" fill="#A45525" d="M81.209,168.729c0,0-24.797,25.274-24.797,39.564
		c0,14.409,24.918,39.209,24.918,39.209L81.209,168.729z"/>
	<path fill-rule="evenodd" clip-rule="evenodd" fill="#A45525" d="M430.792,168.729c0,0,28.464,23.975,27.513,35.667
		c-0.823,11.574-27.749,43.106-27.749,43.106L430.792,168.729z"/>
</g>
</svg>

